<svg width="200" height="200" viewBox="0 0 200 200" fill="none" xmlns="http://www.w3.org/2000/svg">
<path d="M84.8752 157.271C84.0071 158.139 82.9654 158.551 81.7502 158.508C80.5349 158.464 79.4932 158.009 78.6252 157.141C77.8439 156.359 77.4099 155.426 77.3231 154.341C77.2363 153.256 77.5401 152.236 78.2345 151.281L106.36 112.089L59.3543 107.531C56.837 107.271 55.166 105.969 54.3413 103.625C53.5167 101.281 54.0592 99.2413 55.9689 97.5052L116.125 43.7292C116.993 42.8611 118.035 42.4488 119.25 42.4922C120.465 42.5356 121.507 42.9913 122.375 43.8594C123.156 44.6406 123.59 45.5738 123.677 46.6588C123.764 47.7439 123.46 48.7205 122.766 49.5885L94.771 88.9114L141.646 93.4687C144.163 93.7291 145.834 95.0312 146.659 97.375C147.484 99.7187 146.941 101.759 145.031 103.495L84.8752 157.271Z" fill="#DFC12A"/>
</svg>
