<svg width="254" height="62" viewBox="0 0 254 62" fill="none" xmlns="http://www.w3.org/2000/svg">
<g clip-path="url(#clip0_225_9458)">
<path d="M2.25727 58.8107H37.2489H61.2248L55.7168 57.5147C55.5008 57.5147 54.7449 57.3203 53.4488 56.5426C52.1529 55.7651 51.8288 54.2747 51.8288 53.6267L49.2369 36.4548C50.2089 35.9149 52.9953 34.3165 56.3649 32.2429C60.5768 29.6509 65.4368 25.4389 68.3527 22.199C71.2687 18.959 70.2967 18.959 70.2967 16.043C70.2967 13.7103 61.6568 11.3991 57.3368 10.535C56.5809 7.83508 53.9025 2.49992 49.2369 2.75911C43.4049 3.08314 41.4609 10.2111 41.137 11.1831C40.8129 12.155 34.009 8.5911 17.8092 23.171C4.84922 34.8349 1.71726 52.2227 2.25727 58.8107Z" fill="url(#paint0_linear_225_9458)"/>
<path d="M17.8078 33.8625C11.3279 38.7873 6.35997 51.0344 4.19995 56.8663L13.9198 55.2463L22.6678 51.3583C22.6678 51.3583 26.1022 49.9328 33.3597 44.2304C42.4316 37.1025 39.5157 30.6226 38.5437 29.0026C37.7661 27.7066 34.7636 27.3826 33.3597 27.3826C30.8757 27.4906 24.2878 28.9377 17.8078 33.8625Z" fill="url(#paint1_linear_225_9458)" stroke="#232938" stroke-width="3.9"/>
<path d="M36.2754 57.5147H3.22763C2.68764 50.9267 4.84759 34.8349 17.8075 23.171C34.0074 8.5911 40.8113 12.155 41.1353 11.1831C41.4593 10.2111 43.4033 3.08314 49.2352 2.75911C53.9008 2.49992 56.5791 7.83508 57.3352 10.535C61.6551 11.3991 70.295 13.7103 70.295 16.043C70.295 18.959 71.267 18.959 68.3511 22.199C65.4351 25.4389 60.5752 29.6509 56.3632 32.2429C52.9936 34.3165 50.2072 35.9149 49.2352 36.4548L51.8272 53.6267C51.8272 54.2747 52.1512 55.7651 53.4472 56.5427C54.7432 57.3203 55.4992 57.5147 55.7152 57.5147H60.2511" stroke="#232938" stroke-width="3.9" stroke-linecap="round"/>
<path d="M49.561 14.7469C51.8872 14.7469 53.7729 12.8612 53.7729 10.535C53.7729 8.20876 51.8872 6.323 49.561 6.323C47.2348 6.323 45.349 8.20876 45.349 10.535C45.349 12.8612 47.2348 14.7469 49.561 14.7469Z" fill="#232938"/>
<path d="M51.5036 10.2113C52.0404 10.2113 52.4756 9.77615 52.4756 9.23933C52.4756 8.70251 52.0404 8.26733 51.5036 8.26733C50.9668 8.26733 50.5316 8.70251 50.5316 9.23933C50.5316 9.77615 50.9668 10.2113 51.5036 10.2113Z" fill="white"/>
</g>
<path d="M96.6215 17.872C99.2615 17.872 101.578 18.388 103.57 19.42C105.586 20.452 107.134 21.928 108.214 23.848C109.318 25.744 109.87 27.952 109.87 30.472C109.87 32.992 109.318 35.2 108.214 37.096C107.134 38.968 105.586 40.42 103.57 41.452C101.578 42.484 99.2615 43 96.6215 43H87.8375V17.872H96.6215ZM96.4415 38.716C99.0815 38.716 101.122 37.996 102.562 36.556C104.002 35.116 104.722 33.088 104.722 30.472C104.722 27.856 104.002 25.816 102.562 24.352C101.122 22.864 99.0815 22.12 96.4415 22.12H92.8775V38.716H96.4415ZM112.346 32.956C112.346 30.94 112.742 29.152 113.534 27.592C114.35 26.032 115.442 24.832 116.81 23.992C118.202 23.152 119.75 22.732 121.454 22.732C122.942 22.732 124.238 23.032 125.342 23.632C126.47 24.232 127.37 24.988 128.042 25.9V23.056H133.118V43H128.042V40.084C127.394 41.02 126.494 41.8 125.342 42.424C124.214 43.024 122.906 43.324 121.418 43.324C119.738 43.324 118.202 42.892 116.81 42.028C115.442 41.164 114.35 39.952 113.534 38.392C112.742 36.808 112.346 34.996 112.346 32.956ZM128.042 33.028C128.042 31.804 127.802 30.76 127.322 29.896C126.842 29.008 126.194 28.336 125.378 27.88C124.562 27.4 123.686 27.16 122.75 27.16C121.814 27.16 120.95 27.388 120.158 27.844C119.366 28.3 118.718 28.972 118.214 29.86C117.734 30.724 117.494 31.756 117.494 32.956C117.494 34.156 117.734 35.212 118.214 36.124C118.718 37.012 119.366 37.696 120.158 38.176C120.974 38.656 121.838 38.896 122.75 38.896C123.686 38.896 124.562 38.668 125.378 38.212C126.194 37.732 126.842 37.06 127.322 36.196C127.802 35.308 128.042 34.252 128.042 33.028ZM143.081 26.152C143.729 25.096 144.569 24.268 145.601 23.668C146.657 23.068 147.857 22.768 149.201 22.768V28.06H147.869C146.285 28.06 145.085 28.432 144.269 29.176C143.477 29.92 143.081 31.216 143.081 33.064V43H138.041V23.056H143.081V26.152ZM158.463 27.196V36.844C158.463 37.516 158.619 38.008 158.931 38.32C159.267 38.608 159.819 38.752 160.587 38.752H162.927V43H159.759C155.511 43 153.387 40.936 153.387 36.808V27.196H151.011V23.056H153.387V18.124H158.463V23.056H162.927V27.196H158.463ZM190.646 17.872V21.94H180.17V28.384H188.198V32.38H180.17V43H175.13V17.872H190.646ZM199.26 26.152C199.908 25.096 200.748 24.268 201.78 23.668C202.836 23.068 204.036 22.768 205.38 22.768V28.06H204.048C202.464 28.06 201.264 28.432 200.448 29.176C199.656 29.92 199.26 31.216 199.26 33.064V43H194.22V23.056H199.26V26.152ZM217.631 43.324C215.711 43.324 213.983 42.904 212.447 42.064C210.911 41.2 209.699 39.988 208.811 38.428C207.947 36.868 207.515 35.068 207.515 33.028C207.515 30.988 207.959 29.188 208.847 27.628C209.759 26.068 210.995 24.868 212.555 24.028C214.115 23.164 215.855 22.732 217.775 22.732C219.695 22.732 221.435 23.164 222.995 24.028C224.555 24.868 225.779 26.068 226.667 27.628C227.579 29.188 228.035 30.988 228.035 33.028C228.035 35.068 227.567 36.868 226.631 38.428C225.719 39.988 224.471 41.2 222.887 42.064C221.327 42.904 219.575 43.324 217.631 43.324ZM217.631 38.932C218.543 38.932 219.395 38.716 220.187 38.284C221.003 37.828 221.651 37.156 222.131 36.268C222.611 35.38 222.851 34.3 222.851 33.028C222.851 31.132 222.347 29.68 221.339 28.672C220.355 27.64 219.143 27.124 217.703 27.124C216.263 27.124 215.051 27.64 214.067 28.672C213.107 29.68 212.627 31.132 212.627 33.028C212.627 34.924 213.095 36.388 214.031 37.42C214.991 38.428 216.191 38.932 217.631 38.932ZM239.544 22.732C241.032 22.732 242.34 23.032 243.468 23.632C244.596 24.208 245.484 24.964 246.132 25.9V23.056H251.208V43.144C251.208 44.992 250.836 46.636 250.092 48.076C249.348 49.54 248.232 50.692 246.744 51.532C245.256 52.396 243.456 52.828 241.344 52.828C238.512 52.828 236.184 52.168 234.36 50.848C232.56 49.528 231.54 47.728 231.3 45.448H236.304C236.568 46.36 237.132 47.08 237.996 47.608C238.884 48.16 239.952 48.436 241.2 48.436C242.664 48.436 243.852 47.992 244.764 47.104C245.676 46.24 246.132 44.92 246.132 43.144V40.048C245.484 40.984 244.584 41.764 243.432 42.388C242.304 43.012 241.008 43.324 239.544 43.324C237.864 43.324 236.328 42.892 234.936 42.028C233.544 41.164 232.44 39.952 231.624 38.392C230.832 36.808 230.436 34.996 230.436 32.956C230.436 30.94 230.832 29.152 231.624 27.592C232.44 26.032 233.532 24.832 234.9 23.992C236.292 23.152 237.84 22.732 239.544 22.732ZM246.132 33.028C246.132 31.804 245.892 30.76 245.412 29.896C244.932 29.008 244.284 28.336 243.468 27.88C242.652 27.4 241.776 27.16 240.84 27.16C239.904 27.16 239.04 27.388 238.248 27.844C237.456 28.3 236.808 28.972 236.304 29.86C235.824 30.724 235.584 31.756 235.584 32.956C235.584 34.156 235.824 35.212 236.304 36.124C236.808 37.012 237.456 37.696 238.248 38.176C239.064 38.656 239.928 38.896 240.84 38.896C241.776 38.896 242.652 38.668 243.468 38.212C244.284 37.732 244.932 37.06 245.412 36.196C245.892 35.308 246.132 34.252 246.132 33.028Z" fill="#020F30"/>
<defs>
<linearGradient id="paint0_linear_225_9458" x1="2.19995" y1="59.1256" x2="70.2394" y2="17.9779" gradientUnits="userSpaceOnUse">
<stop stop-color="#67C2F9"/>
<stop offset="1" stop-color="#5ECF77"/>
</linearGradient>
<linearGradient id="paint1_linear_225_9458" x1="4.1426" y1="57.1812" x2="39.7824" y2="27.3735" gradientUnits="userSpaceOnUse">
<stop offset="0.120565" stop-color="#0057FF"/>
<stop offset="1" stop-color="#67C2F9"/>
</linearGradient>
<clipPath id="clip0_225_9458">
<rect width="73" height="62" fill="white"/>
</clipPath>
</defs>
</svg>
