<svg width="113" height="112" viewBox="0 0 113 112" fill="none" xmlns="http://www.w3.org/2000/svg">
<rect x="6.66663" y="6" width="100" height="100" rx="50" fill="#1D2939" stroke="#1D2939" stroke-width="4"/>
<mask id="mask0_68_5646" style="mask-type:alpha" maskUnits="userSpaceOnUse" x="8" y="8" width="97" height="96">
<circle cx="56.6666" cy="56" r="48" fill="#314155"/>
</mask>
<g mask="url(#mask0_68_5646)">
<path d="M73.6666 25.5L42.1666 38.5L43.6666 40L86.6666 38L73.6666 25.5Z" fill="black" fill-opacity="0.32"/>
<path d="M43.1666 87.5V42.5V41C60 57.6667 93.9666 91.3 95.1666 92.5C96.3666 93.7 96.6666 97 96.6666 98.5L65.6666 111L43.1666 87.5Z" fill="#314155"/>
<path d="M42.6666 80.5L30.1666 68.5L41.6666 39L42.6666 80.5Z" fill="black" fill-opacity="0.16"/>
<path d="M93.1666 91L42.1666 39.5L93.1666 38.5L106.667 50.5C107.167 57.5 108.067 71.6 107.667 72C107.267 72.4 97.8333 84.8333 93.1666 91Z" fill="#314155"/>
<path d="M93.1666 91L42.1666 39.5L93.1666 38.5L106.667 50.5C107.167 57.5 108.067 71.6 107.667 72C107.267 72.4 97.8333 84.8333 93.1666 91Z" fill="white" fill-opacity="0.08"/>
<path d="M127.699 78.7288L84.062 122.365M87.5322 38.5625L74.9384 25.9687C74.362 25.3922 73.4933 25.2234 72.7429 25.5418L41.1654 38.9433L30.7841 67.4539C30.5181 68.1844 30.6995 69.0028 31.2492 69.5524L42.5688 80.8721" stroke="#66FBD1" stroke-width="3" stroke-linecap="round" stroke-linejoin="round"/>
<path d="M43.2485 87.774C42.9147 87.4401 42.7241 86.9892 42.7172 86.5171L42.0404 39.8183L92.8755 38.4518C93.3531 38.4389 93.815 38.623 94.1529 38.9609L106.393 51.2014C120.364 65.1724 120.128 87.8957 105.87 101.573V101.573C92.0244 114.854 70.1008 114.626 56.5347 101.06L43.2485 87.774Z" stroke="#66FBD1" stroke-width="3" stroke-linecap="round" stroke-linejoin="round"/>
<path d="M43.0916 40.75L94.6667 92.3252" stroke="#66FBD1" stroke-width="3" stroke-linecap="round" stroke-linejoin="round"/>
</g>
</svg>
