<svg width="200" height="200" viewBox="0 0 200 200" fill="none" xmlns="http://www.w3.org/2000/svg">
<path d="M100 154L93.9525 148.548C77.9242 133.913 65.0917 121.143 55.455 110.24C45.8183 99.337 41 88.2865 41 77.0887C41 68.2483 43.9746 60.8568 49.9238 54.9141C55.8729 48.9713 63.2233 46 71.975 46C76.99 46 81.9558 47.2033 86.8725 49.6098C91.7892 52.0164 96.165 55.97 100 61.4707C104.327 55.97 108.801 52.0164 113.422 49.6098C118.044 47.2033 122.912 46 128.025 46C136.777 46 144.127 48.9713 150.076 54.9141C156.025 60.8568 159 68.2483 159 77.0887C159 88.2865 154.182 99.337 144.545 110.24C134.908 121.143 122.076 133.913 106.047 148.548L100 154Z" fill="#6D93F6"/>
</svg>
