
<svg width="1440" height="684" viewBox="0 0 1440 684" fill="none" xmlns="http://www.w3.org/2000/svg">
<mask id="mask0_82_1150" style="mask-type:alpha" maskUnits="userSpaceOnUse" x="0" y="0" width="1440" height="684">
<rect width="1440" height="684" fill="#66FBD1"/>
</mask>
<g mask="url(#mask0_82_1150)">
<g opacity="0.04">
<mask id="path-2-outside-1_82_1150" maskUnits="userSpaceOnUse" x="994" y="446.94" width="232" height="211" fill="black">
<rect fill="white" x="994" y="446.94" width="232" height="211"/>
<path d="M1098.49 641.881C1026.94 639.801 1019.03 606.518 1013.21 564.082C1007.71 524.051 1007.8 461.321 1071.04 463.818C1115.78 465.584 1177.96 520.814 1202.09 550.769C1231.21 590.709 1170.05 643.961 1098.49 641.881Z"/>
</mask>
<path d="M1098.49 641.881C1026.94 639.801 1019.03 606.518 1013.21 564.082C1007.71 524.051 1007.8 461.321 1071.04 463.818C1115.78 465.584 1177.96 520.814 1202.09 550.769C1231.21 590.709 1170.05 643.961 1098.49 641.881Z" fill="#1D2939"/>
<path d="M1013.21 564.082L1029.06 561.906L1013.21 564.082ZM1098.49 641.881L1098.03 657.874L1098.49 641.881ZM1202.09 550.769L1214.55 540.732L1214.79 541.031L1215.01 541.342L1202.09 550.769ZM1071.04 463.818L1070.4 479.805H1070.4L1071.04 463.818ZM1029.06 561.906C1032.05 583.683 1035.19 597.978 1043.46 607.831C1050.92 616.727 1065.35 624.911 1098.96 625.888L1098.03 657.874C1060.08 656.771 1034.78 647.273 1018.94 628.399C1003.91 610.481 1000.19 586.917 997.354 566.258L1029.06 561.906ZM1098.96 625.888C1130.96 626.818 1160.14 615.265 1177.5 600.049C1186.17 592.451 1191.05 584.714 1192.77 578.112C1194.34 572.07 1193.55 566.214 1189.16 560.196L1215.01 541.342C1225.19 555.294 1227.67 571.071 1223.73 586.182C1219.94 600.733 1210.51 613.668 1198.59 624.116C1174.77 644.991 1137.59 659.024 1098.03 657.874L1098.96 625.888ZM1189.63 560.806C1178.48 546.972 1157.92 526.619 1134.81 509.61C1111.05 492.13 1087.66 480.486 1070.4 479.805L1071.67 447.83C1099.15 448.915 1129.22 465.77 1153.77 483.835C1178.96 502.372 1201.56 524.611 1214.55 540.732L1189.63 560.806ZM1070.4 479.805C1057.3 479.288 1049.08 482.171 1043.71 485.92C1038.28 489.708 1034.23 495.461 1031.42 503.359C1025.55 519.897 1026.37 542.316 1029.06 561.906L997.354 566.258C994.548 545.817 992.666 516.855 1001.27 492.645C1005.7 480.168 1013.18 468.205 1025.39 459.683C1037.65 451.121 1053.15 447.099 1071.67 447.83L1070.4 479.805Z" fill="#1D2939" mask="url(#path-2-outside-1_82_1150)"/>
<mask id="path-4-outside-2_82_1150" maskUnits="userSpaceOnUse" x="553.397" y="486.558" width="168.275" height="167.058" fill="black">
<rect fill="white" x="553.397" y="486.558" width="168.275" height="167.058"/>
<path d="M660.059 535.494C634.424 515.18 621.857 524.513 607.322 537.662C593.611 550.067 575.166 572.062 598.014 589.783C614.18 602.321 652.189 601.262 669.449 597.866C691.395 592.442 685.694 555.807 660.059 535.494Z"/>
</mask>
<path d="M660.059 535.494C634.424 515.18 621.857 524.513 607.322 537.662C593.611 550.067 575.166 572.062 598.014 589.783C614.18 602.321 652.189 601.262 669.449 597.866C691.395 592.442 685.694 555.807 660.059 535.494Z" fill="#1D2939"/>
<path d="M607.322 537.662L596.588 525.797L607.322 537.662ZM660.059 535.494L650.122 548.034L660.059 535.494ZM669.449 597.866L672.537 613.565L672.914 613.491L673.288 613.399L669.449 597.866ZM598.014 589.783L588.208 602.426L588.208 602.426L598.014 589.783ZM618.056 549.527C625.743 542.573 629.319 540.312 632.303 539.787C634.049 539.479 639.013 539.231 650.122 548.034L669.996 522.954C655.469 511.443 641.332 505.704 626.753 508.272C613.411 510.621 603.437 519.601 596.588 525.797L618.056 549.527ZM650.122 548.034C659.971 555.839 665.54 566.545 666.779 574.674C667.396 578.722 666.788 580.995 666.401 581.806C666.262 582.099 666.334 582.154 665.61 582.334L673.288 613.399C683.537 610.865 691.126 604.308 695.289 595.571C699.205 587.353 699.683 578.18 698.414 569.852C695.88 553.231 685.781 535.462 669.996 522.954L650.122 548.034ZM666.36 582.167C659.17 583.582 646.74 584.628 634.346 583.833C621.156 582.986 611.854 580.269 607.82 577.14L588.208 602.426C600.339 611.835 618.125 614.857 632.296 615.767C647.263 616.727 662.467 615.546 672.537 613.565L666.36 582.167ZM607.82 577.14C604.25 574.371 603.541 572.457 603.358 571.774C603.157 571.021 603.058 569.701 603.942 567.34C605.986 561.882 611.518 555.442 618.056 549.527L596.588 525.797C589.415 532.287 578.869 543.047 573.974 556.118C571.389 563.021 570.106 571.298 572.444 580.041C574.801 588.854 580.354 596.334 588.208 602.426L607.82 577.14Z" fill="#1D2939" mask="url(#path-4-outside-2_82_1150)"/>
<mask id="path-6-outside-3_82_1150" maskUnits="userSpaceOnUse" x="193.042" y="212.768" width="117.291" height="115.661" fill="black">
<rect fill="white" x="193.042" y="212.768" width="117.291" height="115.661"/>
<path d="M268.078 288.367C283.385 276.751 279.913 268.236 274.556 258.042C269.503 248.427 259.685 234.715 246.26 245.125C236.762 252.489 231.807 274.271 231.215 284.589C231.093 297.869 252.771 299.982 268.078 288.367Z"/>
</mask>
<path d="M268.078 288.367C283.385 276.751 279.913 268.236 274.556 258.042C269.503 248.427 259.685 234.715 246.26 245.125C236.762 252.489 231.807 274.271 231.215 284.589C231.093 297.869 252.771 299.982 268.078 288.367Z" fill="#1D2939"/>
<path d="M274.556 258.042L288.719 250.6L274.556 258.042ZM268.078 288.367L277.75 301.112L268.078 288.367ZM231.215 284.589L215.242 283.672L215.22 284.056L215.216 284.441L231.215 284.589ZM246.26 245.125L256.065 257.769L246.26 245.125ZM260.393 265.485C261.712 267.997 262.432 269.52 262.845 270.705C263.214 271.767 263.08 271.867 263.113 271.437C263.24 269.796 264.323 271.131 258.406 275.621L277.75 301.112C287.14 293.986 294.14 285.256 295.018 273.906C295.799 263.808 291.135 255.196 288.719 250.6L260.393 265.485ZM258.406 275.621C253.769 279.14 248.507 280.2 245.462 279.894C243.957 279.743 244.138 279.392 245.032 280.139C246.366 281.254 247.229 283.151 247.215 284.737L215.216 284.441C215.14 292.666 218.667 299.808 224.51 304.692C229.912 309.207 236.446 311.148 242.259 311.733C253.85 312.9 267.08 309.209 277.75 301.112L258.406 275.621ZM247.189 285.505C247.401 281.811 248.508 275.146 250.608 268.716C251.639 265.558 252.788 262.838 253.954 260.75C254.528 259.724 255.04 258.969 255.455 258.444C255.877 257.911 256.099 257.742 256.065 257.769L236.456 232.48C227.658 239.302 222.841 250.66 220.188 258.783C217.288 267.664 215.622 277.049 215.242 283.672L247.189 285.505ZM256.065 257.769C257.278 256.828 257.111 257.386 255.79 257.399C254.542 257.411 253.989 256.915 254.384 257.19C254.879 257.536 255.819 258.394 257.052 260.052C258.239 261.648 259.369 263.537 260.393 265.485L288.719 250.6C285.994 245.412 280.808 236.615 272.711 230.958C268.341 227.905 262.501 225.332 255.479 225.4C248.384 225.469 241.955 228.217 236.456 232.48L256.065 257.769Z" fill="#1D2939" mask="url(#path-6-outside-3_82_1150)"/>
<mask id="path-8-outside-4_82_1150" maskUnits="userSpaceOnUse" x="1389.9" y="457.32" width="108.42" height="106.504" fill="black">
<rect fill="white" x="1389.9" y="457.32" width="108.42" height="106.504"/>
<path d="M1453.19 490.911C1438.5 482.33 1432.71 488.058 1426.19 495.896C1420.04 503.29 1412.15 515.971 1425.22 523.421C1434.46 528.693 1453.96 525.359 1462.6 522.344C1473.5 517.941 1467.88 499.492 1453.19 490.911Z"/>
</mask>
<path d="M1453.19 490.911C1438.5 482.33 1432.71 488.058 1426.19 495.896C1420.04 503.29 1412.15 515.971 1425.22 523.421C1434.46 528.693 1453.96 525.359 1462.6 522.344C1473.5 517.941 1467.88 499.492 1453.19 490.911Z" fill="#1D2939"/>
<path d="M1426.19 495.896L1438.49 506.129L1426.19 495.896ZM1453.19 490.911L1461.26 477.095L1453.19 490.911ZM1462.6 522.344L1467.87 537.451L1468.23 537.324L1468.59 537.18L1462.6 522.344ZM1425.22 523.421L1433.14 509.522L1433.14 509.522L1425.22 523.421ZM1438.49 506.129C1440.09 504.201 1441.02 503.189 1441.74 502.549C1442.36 501.996 1442.27 502.234 1441.59 502.455C1440.77 502.723 1440.26 502.597 1440.52 502.651C1440.99 502.745 1442.43 503.156 1445.12 504.727L1461.26 477.095C1452.03 471.705 1441.95 468.675 1431.65 472.037C1422.56 475.01 1416.79 482.178 1413.89 485.663L1438.49 506.129ZM1445.12 504.727C1449.2 507.108 1451.53 510.689 1452.17 512.812C1452.49 513.857 1452.08 513.437 1452.53 512.005C1452.77 511.207 1453.27 510.219 1454.12 509.29C1454.97 508.351 1455.9 507.793 1456.61 507.508L1468.59 537.18C1475.87 534.243 1480.89 528.505 1483.07 521.559C1485.07 515.161 1484.38 508.767 1482.81 503.577C1479.69 493.229 1471.87 483.295 1461.26 477.095L1445.12 504.727ZM1457.33 507.237C1454.39 508.261 1448.72 509.586 1442.9 510.038C1440.05 510.259 1437.56 510.238 1435.6 510.009C1433.51 509.764 1432.89 509.381 1433.14 509.522L1417.29 537.321C1426.37 542.494 1437.77 542.532 1445.37 541.942C1453.77 541.291 1462.17 539.442 1467.87 537.451L1457.33 507.237ZM1433.14 509.522C1432.23 509.002 1433.06 509.226 1433.71 510.746C1434.33 512.198 1434.09 513.224 1434.12 513.079C1434.18 512.814 1434.46 511.942 1435.34 510.471C1436.18 509.067 1437.28 507.582 1438.49 506.129L1413.89 485.663C1410.54 489.689 1404.85 497.2 1402.87 506.196C1401.8 511.077 1401.65 517.132 1404.27 523.288C1406.92 529.512 1411.67 534.115 1417.29 537.321L1433.14 509.522Z" fill="#1D2939" mask="url(#path-8-outside-4_82_1150)"/>
<mask id="path-10-outside-5_82_1150" maskUnits="userSpaceOnUse" x="15.1027" y="491.591" width="120.407" height="132.839" fill="black">
<rect fill="white" x="15.1027" y="491.591" width="120.407" height="132.839"/>
<path d="M111.063 559.094C115.101 528.762 102.645 523.34 86.4737 518.221C71.2189 513.392 46.7254 509.496 43.4138 536.342C41.0707 555.336 58.4169 585.041 68.4748 597.103C82.0922 611.898 107.025 589.425 111.063 559.094Z"/>
</mask>
<path d="M111.063 559.094C115.101 528.762 102.645 523.34 86.4737 518.221C71.2189 513.392 46.7254 509.496 43.4138 536.342C41.0707 555.336 58.4169 585.041 68.4748 597.103C82.0922 611.898 107.025 589.425 111.063 559.094Z" fill="#1D2939"/>
<path d="M86.4737 518.221L91.3021 502.967L86.4737 518.221ZM111.063 559.094L95.2034 556.982L111.063 559.094ZM68.4748 597.103L56.1865 607.35L56.4372 607.651L56.7023 607.939L68.4748 597.103ZM43.4138 536.342L59.2934 538.301L43.4138 536.342ZM81.6452 533.475C90.1971 536.182 92.6557 537.702 93.8543 539.199C94.5099 540.019 96.9779 543.653 95.2034 556.982L126.924 561.205C129.187 544.203 127.445 529.96 118.839 519.206C110.776 509.13 98.9211 505.379 91.3021 502.967L81.6452 533.475ZM95.2034 556.982C93.6373 568.746 88.0105 578.334 82.686 583.103C80.0054 585.504 78.4477 585.779 78.464 585.778C78.5907 585.763 79.0507 585.751 79.6329 585.968C80.2182 586.186 80.4067 586.441 80.2473 586.268L56.7023 607.939C63.5613 615.391 72.728 618.657 82.1485 617.565C90.7959 616.562 98.2772 612.098 104.037 606.939C115.593 596.587 124.452 579.773 126.924 561.205L95.2034 556.982ZM80.7632 586.856C76.6852 581.966 70.5507 572.706 65.7812 562.531C60.7263 551.748 58.7047 543.074 59.2934 538.301L27.5341 534.383C25.7798 548.605 31.2597 564.28 36.8067 576.113C42.639 588.555 50.2065 600.178 56.1865 607.35L80.7632 586.856ZM59.2934 538.301C59.8208 534.026 60.9736 532.557 61.2878 532.208C61.5684 531.896 62.1305 531.404 63.762 531.06C67.9195 530.185 74.47 531.204 81.6452 533.475L91.3021 502.967C83.2226 500.41 69.899 497.066 57.1681 499.747C50.3554 501.182 43.2198 504.447 37.4998 510.804C31.8133 517.124 28.6626 525.236 27.5341 534.383L59.2934 538.301Z" fill="#1D2939" mask="url(#path-10-outside-5_82_1150)"/>
<mask id="path-12-outside-6_82_1150" maskUnits="userSpaceOnUse" x="322" y="141.533" width="196" height="182" fill="black">
<rect fill="white" x="322" y="141.533" width="196" height="182"/>
<path d="M339.262 202.183C334.526 166.404 394.778 145.135 456.767 165.937C518.157 194.278 505.444 241.239 481.313 282.427C457.183 323.614 416.645 307.44 408.74 268.332C400.836 229.225 343.998 237.962 339.262 202.183Z"/>
</mask>
<path d="M339.262 202.183C334.526 166.404 394.778 145.135 456.767 165.937C518.157 194.278 505.444 241.239 481.313 282.427C457.183 323.614 416.645 307.44 408.74 268.332C400.836 229.225 343.998 237.962 339.262 202.183Z" fill="#1D2939"/>
<path d="M456.767 165.937L461.857 150.768L462.683 151.045L463.474 151.41L456.767 165.937ZM339.262 202.183L323.4 204.282L339.262 202.183ZM408.74 268.332L424.423 265.162L408.74 268.332ZM481.313 282.427L467.508 274.339L481.313 282.427ZM451.677 181.105C423.476 171.642 396.452 172.068 377.918 178.065C358.336 184.401 354.303 193.883 355.124 200.083L323.4 204.282C319.485 174.704 343.21 155.661 368.067 147.619C393.972 139.237 428.069 139.429 461.857 150.768L451.677 181.105ZM355.124 200.083C355.652 204.076 357.35 206.742 360.91 209.549C365.193 212.925 371.009 215.614 379.433 219.443C394.06 226.091 418.637 236.539 424.423 265.162L393.057 271.502C390.938 261.019 383.145 256.281 366.192 248.575C358.827 245.228 349.051 240.948 341.098 234.678C332.422 227.838 325.24 218.179 323.4 204.282L355.124 200.083ZM424.423 265.162C427.493 280.35 436.228 288.201 443.078 290.034C448.423 291.464 458.023 290.528 467.508 274.339L495.119 290.515C480.473 315.513 457.739 327.083 434.806 320.946C413.379 315.212 397.892 295.422 393.057 271.502L424.423 265.162ZM467.508 274.339C479.241 254.311 486.263 235.862 485.152 220.52C484.193 207.269 476.848 192.83 450.061 180.463L463.474 151.41C498.077 167.385 515.07 190.597 517.069 218.209C518.916 243.729 507.516 269.354 495.119 290.515L467.508 274.339Z" fill="#1D2939" mask="url(#path-12-outside-6_82_1150)"/>
<mask id="path-14-outside-7_82_1150" maskUnits="userSpaceOnUse" x="550.856" y="-139.605" width="981" height="637" fill="black">
<rect fill="white" x="550.856" y="-139.605" width="981" height="637"/>
<path d="M648.817 99.6619C636.752 -5.59531 672.947 -55.5198 738.265 -115.013C813.845 -109.743 957.516 -119.839 919.241 -99.2036C871.397 -73.4093 845.47 27.7065 947.115 93.4213C1036.56 151.25 1082.74 13.5424 1211.71 57.6423C1340.69 101.742 1344.85 57.6421 1344.85 -47.6151C1344.85 -164.713 1442.2 -115.013 1495.87 -99.2036C1549.54 -83.3942 1475.9 288.126 1458.01 335.971C1440.12 383.815 1332.78 473.263 1249.16 387.559C1165.53 301.856 1096.06 246.523 955.02 266.493C819.084 285.74 919.241 416.927 760.315 473.263C692.917 497.154 581.419 473.263 567.69 335.971C556.55 224.568 660.882 204.919 648.817 99.6619Z"/>
</mask>
<path d="M648.817 99.6619C636.752 -5.59531 672.947 -55.5198 738.265 -115.013C813.845 -109.743 957.516 -119.839 919.241 -99.2036C871.397 -73.4093 845.47 27.7065 947.115 93.4213C1036.56 151.25 1082.74 13.5424 1211.71 57.6423C1340.69 101.742 1344.85 57.6421 1344.85 -47.6151C1344.85 -164.713 1442.2 -115.013 1495.87 -99.2036C1549.54 -83.3942 1475.9 288.126 1458.01 335.971C1440.12 383.815 1332.78 473.263 1249.16 387.559C1165.53 301.856 1096.06 246.523 955.02 266.493C819.084 285.74 919.241 416.927 760.315 473.263C692.917 497.154 581.419 473.263 567.69 335.971C556.55 224.568 660.882 204.919 648.817 99.6619Z" fill="#1D2939"/>
<path d="M738.265 -115.013L727.491 -126.842L732.551 -131.45L739.378 -130.974L738.265 -115.013ZM648.817 99.6619L632.921 101.484L648.817 99.6619ZM567.69 335.971L551.77 337.563L567.69 335.971ZM760.315 473.263L765.661 488.343V488.343L760.315 473.263ZM955.02 266.493L957.263 282.334L955.02 266.493ZM1249.16 387.559L1237.71 398.733L1249.16 387.559ZM1458.01 335.971L1472.99 341.574V341.574L1458.01 335.971ZM1495.87 -99.2036L1500.39 -114.552L1495.87 -99.2036ZM1211.71 57.6423L1206.54 72.7817L1211.71 57.6423ZM947.115 93.4213L955.802 79.9849L947.115 93.4213ZM919.241 -99.2036L911.648 -113.287L919.241 -99.2036ZM749.039 -103.184C716.745 -73.7695 693.296 -48.1323 678.976 -17.974C664.844 11.7878 658.935 47.4332 664.713 97.8398L632.921 101.484C626.634 46.6334 632.791 4.68796 650.069 -31.7001C667.16 -67.6916 694.468 -96.7632 727.491 -126.842L749.039 -103.184ZM664.713 97.8398C671.515 157.18 644.693 192.969 621.557 224.9C598.584 256.605 578.679 285.063 583.611 334.379L551.77 337.563C545.561 275.476 572.252 238.408 595.644 206.124C618.873 174.065 638.185 147.401 632.921 101.484L664.713 97.8398ZM583.611 334.379C590.007 398.339 618.63 433.571 651.369 450.923C684.975 468.734 724.986 468.81 754.969 458.182L765.661 488.343C728.246 501.606 678.809 501.683 636.384 479.197C593.093 456.253 559.103 410.894 551.77 337.563L583.611 334.379ZM754.969 458.182C792.178 444.992 812.881 427.964 825.776 410.419C838.95 392.495 844.962 372.813 850.88 351.659C856.522 331.492 862.42 308.104 876.912 289.248C892.279 269.254 915.753 255.893 952.777 250.651L957.263 282.334C926.319 286.716 911.336 296.971 902.284 308.748C892.358 321.664 887.874 338.202 881.697 360.28C875.797 381.371 868.553 406.251 851.561 429.371C834.29 452.869 807.915 473.365 765.661 488.343L754.969 458.182ZM952.777 250.651C1025.95 240.29 1081.86 249.359 1130.6 273.003C1178.76 296.367 1218.69 333.427 1260.61 376.385L1237.71 398.733C1196 355.988 1159.38 322.53 1116.64 301.794C1074.47 281.338 1025.13 272.725 957.263 282.334L952.777 250.651ZM1260.61 376.385C1279.2 395.44 1298.36 404.106 1316.65 406.52C1335.16 408.965 1353.98 405.144 1371.72 397.233C1389.47 389.312 1405.61 377.516 1418.32 364.909C1431.21 352.124 1439.62 339.452 1443.02 330.367L1472.99 341.574C1467.45 356.412 1455.74 372.862 1440.86 387.626C1425.79 402.568 1406.52 416.749 1384.75 426.457C1362.96 436.176 1338.15 441.637 1312.46 438.245C1286.54 434.822 1260.93 422.53 1237.71 398.733L1260.61 376.385ZM1443.02 330.367C1446.98 319.775 1454.72 288.834 1463.34 246.797C1471.87 205.278 1481.01 154.204 1487.92 104.18C1494.86 54.0069 1499.46 5.50677 1499.11 -31.112C1498.93 -49.5461 1497.5 -63.9991 1494.91 -73.8664C1491.94 -85.1863 1489.12 -84.5125 1491.35 -83.8556L1500.39 -114.552C1516.04 -109.942 1522.65 -94.2002 1525.86 -81.9896C1529.44 -68.3264 1530.92 -50.7869 1531.11 -31.4202C1531.48 7.56265 1526.62 57.8972 1519.62 108.561C1512.6 159.374 1503.33 211.139 1494.69 253.231C1486.16 294.804 1477.98 328.244 1472.99 341.574L1443.02 330.367ZM1491.35 -83.8556C1484.27 -85.9409 1476.55 -88.5596 1468.83 -91.1755C1461 -93.8312 1453.04 -96.5281 1444.99 -98.967C1428.67 -103.912 1413.37 -107.349 1400.35 -107.25C1387.67 -107.154 1378.98 -103.772 1373.01 -96.8529C1366.62 -89.4396 1360.85 -75.0968 1360.85 -47.6151H1328.85C1328.85 -78.6822 1335.24 -102.039 1348.78 -117.746C1362.74 -133.948 1381.74 -139.109 1400.11 -139.249C1418.14 -139.386 1437.24 -134.752 1454.27 -129.592C1462.9 -126.978 1471.34 -124.113 1479.11 -121.482C1486.98 -118.811 1494.05 -116.419 1500.39 -114.552L1491.35 -83.8556ZM1360.85 -47.6151C1360.85 -21.4802 1360.61 2.06677 1358.04 21.5292C1355.51 40.7493 1350.4 58.8179 1338.42 71.8504C1325.75 85.6412 1308.01 91.0873 1286.56 90.5981C1265.56 90.119 1239.26 83.971 1206.54 72.7817L1216.89 42.5029C1248.65 53.3635 1271.24 58.2404 1287.29 58.6064C1302.89 58.9622 1310.38 55.0735 1314.86 50.1946C1320.05 44.5574 1324.04 34.6216 1326.32 17.3474C1328.56 0.315643 1328.85 -21.1213 1328.85 -47.6151H1360.85ZM1206.54 72.7817C1149.08 53.1334 1110.8 73.2077 1072.39 94.6509C1053.65 105.113 1033.19 116.964 1011.44 121.665C988.325 126.659 964.33 123.604 938.428 106.858L955.802 79.9849C974.624 92.1535 989.945 93.5705 1004.68 90.3869C1020.77 86.9097 1036.69 77.9338 1056.79 66.7097C1096.08 44.7811 1145.38 18.0514 1216.89 42.5029L1206.54 72.7817ZM938.428 106.858C828.219 35.6061 851.409 -80.8103 911.648 -113.287L926.834 -85.1199C891.385 -66.0083 862.721 19.8069 955.802 79.9849L938.428 106.858ZM911.648 -113.287C913.518 -114.295 913.528 -114.549 912.876 -113.879C912.479 -113.471 908.275 -108.978 910.001 -101.833C910.775 -98.6305 912.458 -96.4972 913.645 -95.3412C914.777 -94.2385 915.743 -93.7303 915.993 -93.6034C916.427 -93.3832 916.088 -93.6191 914.303 -94.0115C906.882 -95.6432 891.818 -96.5094 871.167 -96.8728C831.745 -97.5667 775.431 -96.3828 737.152 -99.0517L739.378 -130.974C776.679 -128.373 829.991 -129.602 871.73 -128.868C891.66 -128.517 910.061 -127.709 921.175 -125.265C924.024 -124.638 927.385 -123.706 930.465 -122.144C932.889 -120.915 939.188 -117.285 941.106 -109.35C943.246 -100.496 938.277 -94.0988 935.816 -91.5684C933.101 -88.7767 929.748 -86.6912 926.834 -85.1199L911.648 -113.287Z" fill="#1D2939" mask="url(#path-14-outside-7_82_1150)"/>
<mask id="path-16-outside-8_82_1150" maskUnits="userSpaceOnUse" x="-484.728" y="479" width="981" height="637" fill="black">
<rect fill="white" x="-484.728" y="479" width="981" height="637"/>
<path d="M398.311 876.733C410.376 981.991 374.181 1031.91 308.863 1091.41C233.283 1086.14 89.6122 1096.23 127.888 1075.6C175.732 1049.8 201.658 948.689 100.013 882.974C10.5654 825.145 -35.6147 962.853 -164.586 918.753C-293.557 874.653 -297.718 918.753 -297.718 1024.01C-297.718 1141.11 -395.07 1091.41 -448.739 1075.6C-502.407 1059.79 -428.769 688.269 -410.879 640.425C-392.99 592.58 -285.653 503.133 -202.029 588.836C-118.406 674.54 -48.9278 729.872 92.1085 709.903C228.045 690.655 127.888 559.468 286.813 503.133C354.211 479.242 465.709 503.133 479.438 640.425C490.578 751.827 386.246 771.476 398.311 876.733Z"/>
</mask>
<path d="M398.311 876.733C410.376 981.991 374.181 1031.91 308.863 1091.41C233.283 1086.14 89.6122 1096.23 127.888 1075.6C175.732 1049.8 201.658 948.689 100.013 882.974C10.5654 825.145 -35.6147 962.853 -164.586 918.753C-293.557 874.653 -297.718 918.753 -297.718 1024.01C-297.718 1141.11 -395.07 1091.41 -448.739 1075.6C-502.407 1059.79 -428.769 688.269 -410.879 640.425C-392.99 592.58 -285.653 503.133 -202.029 588.836C-118.406 674.54 -48.9278 729.872 92.1085 709.903C228.045 690.655 127.888 559.468 286.813 503.133C354.211 479.242 465.709 503.133 479.438 640.425C490.578 751.827 386.246 771.476 398.311 876.733Z" fill="#1D2939"/>
<path d="M308.863 1091.41L319.637 1103.24L314.578 1107.85L307.75 1107.37L308.863 1091.41ZM398.311 876.733L414.207 874.911L398.311 876.733ZM479.438 640.425L495.359 638.833L479.438 640.425ZM286.813 503.133L281.468 488.052L281.468 488.052L286.813 503.133ZM92.1085 709.903L89.8654 694.061L92.1085 709.903ZM-202.029 588.836L-190.577 577.662L-202.029 588.836ZM-410.879 640.425L-425.866 634.821L-425.866 634.821L-410.879 640.425ZM-448.739 1075.6L-453.26 1090.95L-448.739 1075.6ZM-164.586 918.753L-159.409 903.613L-164.586 918.753ZM100.013 882.974L91.3263 896.41L100.013 882.974ZM127.888 1075.6L135.48 1089.68L127.888 1075.6ZM298.089 1079.58C330.384 1050.16 353.832 1024.53 368.152 994.369C382.285 964.607 388.193 928.962 382.415 878.555L414.207 874.911C420.494 929.762 414.338 971.707 397.059 1008.1C379.969 1044.09 352.661 1073.16 319.637 1103.24L298.089 1079.58ZM382.415 878.555C375.613 819.215 402.436 783.426 425.571 751.496C448.544 719.79 468.449 691.332 463.518 642.017L495.359 638.833C501.568 700.919 474.877 737.987 451.484 770.271C428.255 802.33 408.944 828.995 414.207 874.911L382.415 878.555ZM463.518 642.017C457.122 578.056 428.499 542.824 395.759 525.472C362.154 507.662 322.142 507.585 292.159 518.213L281.468 488.052C318.883 474.789 368.319 474.713 410.744 497.198C454.035 520.142 488.026 565.501 495.359 638.833L463.518 642.017ZM292.159 518.213C254.95 531.403 234.248 548.431 221.352 565.976C208.178 583.9 202.166 603.583 196.248 624.736C190.606 644.903 184.709 668.291 170.216 687.147C154.849 707.141 131.376 720.502 94.3516 725.745L89.8654 694.061C120.809 689.679 135.792 679.425 144.844 667.647C154.771 654.732 159.255 638.193 165.431 616.115C171.332 595.024 178.575 570.144 195.568 547.025C212.839 523.526 239.214 503.03 281.468 488.052L292.159 518.213ZM94.3516 725.745C21.1822 736.105 -34.7359 727.036 -83.4739 703.392C-131.634 680.029 -171.566 642.968 -213.481 600.01L-190.577 577.662C-148.87 620.408 -112.251 653.865 -69.5067 674.601C-27.3407 695.057 21.9984 703.67 89.8654 694.061L94.3516 725.745ZM-213.481 600.01C-232.073 580.956 -251.237 572.289 -269.52 569.875C-288.035 567.43 -306.85 571.251 -324.587 579.162C-342.344 587.083 -358.482 598.879 -371.191 611.486C-384.078 624.271 -392.496 636.944 -395.893 646.028L-425.866 634.821C-420.318 619.983 -408.611 603.533 -393.727 588.769C-378.666 573.827 -359.388 559.647 -337.622 549.938C-315.835 540.22 -291.018 534.758 -265.33 538.15C-239.409 541.573 -213.797 553.865 -190.577 577.662L-213.481 600.01ZM-395.893 646.028C-399.853 656.62 -407.588 687.561 -416.216 729.599C-424.738 771.117 -433.88 822.191 -440.794 872.215C-447.729 922.388 -452.334 970.888 -451.981 1007.51C-451.804 1025.94 -450.368 1040.39 -447.779 1050.26C-444.808 1061.58 -441.988 1060.91 -444.218 1060.25L-453.26 1090.95C-468.907 1086.34 -475.526 1070.6 -478.73 1058.38C-482.316 1044.72 -483.793 1027.18 -483.98 1007.82C-484.355 968.832 -479.495 918.498 -472.493 867.834C-465.47 817.021 -456.202 765.256 -447.563 723.165C-439.029 681.591 -430.85 648.151 -425.866 634.821L-395.893 646.028ZM-444.218 1060.25C-437.139 1062.34 -429.422 1064.95 -421.705 1067.57C-413.87 1070.23 -405.908 1072.92 -397.86 1075.36C-381.541 1080.31 -366.24 1083.74 -353.224 1083.65C-340.545 1083.55 -331.851 1080.17 -325.886 1073.25C-319.496 1065.83 -313.718 1051.49 -313.718 1024.01L-281.718 1024.01C-281.718 1055.08 -288.108 1078.43 -301.649 1094.14C-315.615 1110.34 -334.613 1115.5 -352.981 1115.64C-371.011 1115.78 -390.112 1111.15 -407.141 1105.99C-415.767 1103.37 -424.215 1100.51 -431.977 1097.88C-439.856 1095.21 -446.922 1092.81 -453.26 1090.95L-444.218 1060.25ZM-313.718 1024.01C-313.718 997.875 -313.481 974.328 -310.915 954.866C-308.382 935.646 -303.275 917.577 -291.296 904.545C-278.619 890.754 -260.884 885.308 -239.433 885.797C-218.428 886.276 -192.133 892.424 -159.409 903.613L-169.763 933.892C-201.525 923.032 -224.114 918.155 -240.162 917.789C-255.764 917.433 -263.252 921.322 -267.737 926.201C-272.918 931.838 -276.913 941.774 -279.19 959.048C-281.435 976.079 -281.718 997.516 -281.718 1024.01L-313.718 1024.01ZM-159.409 903.613C-101.947 923.262 -63.6765 903.187 -25.2639 881.744C-6.5232 871.283 13.937 859.431 35.6911 854.73C58.8037 849.736 82.7981 852.791 108.7 869.537L91.3263 896.41C72.5044 884.242 57.1833 882.825 42.4496 886.008C26.3574 889.485 10.4404 898.461 -9.66627 909.686C-48.9485 931.614 -98.2535 958.344 -169.763 933.892L-159.409 903.613ZM108.7 869.537C218.909 940.789 195.72 1057.21 135.48 1089.68L120.295 1061.52C155.744 1042.4 184.407 956.588 91.3263 896.41L108.7 869.537ZM135.48 1089.68C133.61 1090.69 133.6 1090.94 134.252 1090.27C134.649 1089.87 138.854 1085.37 137.127 1078.23C136.353 1075.03 134.67 1072.89 133.484 1071.74C132.352 1070.63 131.386 1070.13 131.135 1070C130.701 1069.78 131.04 1070.01 132.825 1070.41C140.246 1072.04 155.31 1072.9 175.961 1073.27C215.384 1073.96 271.698 1072.78 309.976 1075.45L307.75 1107.37C270.449 1104.77 217.137 1106 175.398 1105.26C155.469 1104.91 137.067 1104.1 125.953 1101.66C123.104 1101.03 119.743 1100.1 116.663 1098.54C114.24 1097.31 107.94 1093.68 106.022 1085.75C103.883 1076.89 108.851 1070.49 111.312 1067.96C114.027 1065.17 117.38 1063.09 120.295 1061.52L135.48 1089.68Z" fill="#1D2939" mask="url(#path-16-outside-8_82_1150)"/>
<mask id="path-18-outside-9_82_1150" maskUnits="userSpaceOnUse" x="70.4468" y="576.624" width="1481" height="559" fill="black">
<rect fill="white" x="70.4468" y="576.624" width="1481" height="559"/>
<path d="M409.716 881.234C316.347 914.698 304.786 918.842 152.902 920.502C-84.2386 976.666 369.241 1042.82 773.212 1103.14C1177.18 1163.47 1192.58 1042.82 1166.37 988.315C1140.16 933.815 1158.88 905.524 1217.12 853.104C1275.37 800.683 1324.04 815.244 1436.79 853.104C1549.54 890.963 1540.38 751.591 1527.07 692.93C1513.76 634.269 1412.66 578.52 1342.77 597.241C1272.87 615.963 1254.57 736.198 1117.27 768.232C979.982 800.267 910.504 680.033 773.212 680.033C703.109 680.033 652.978 727.045 698.326 792.778C764.028 888.017 737.433 963.769 718.711 988.315C699.99 1012.86 647.569 1035.33 600.557 945.048C553.545 854.768 504.453 847.279 410.429 880.978L409.716 881.234Z"/>
</mask>
<path d="M409.716 881.234C316.347 914.698 304.786 918.842 152.902 920.502C-84.2386 976.666 369.241 1042.82 773.212 1103.14C1177.18 1163.47 1192.58 1042.82 1166.37 988.315C1140.16 933.815 1158.88 905.524 1217.12 853.104C1275.37 800.683 1324.04 815.244 1436.79 853.104C1549.54 890.963 1540.38 751.591 1527.07 692.93C1513.76 634.269 1412.66 578.52 1342.77 597.241C1272.87 615.963 1254.57 736.198 1117.27 768.232C979.982 800.267 910.504 680.033 773.212 680.033C703.109 680.033 652.978 727.045 698.326 792.778C764.028 888.017 737.433 963.769 718.711 988.315C699.99 1012.86 647.569 1035.33 600.557 945.048C553.545 854.768 504.453 847.279 410.429 880.978L409.716 881.234Z" fill="#1D2939"/>
<path d="M152.902 920.502L149.215 904.932L150.947 904.522L152.727 904.503L152.902 920.502ZM409.716 881.234L415.114 896.295L415.114 896.295L409.716 881.234ZM410.429 880.978L405.03 865.916L405.03 865.916L410.429 880.978ZM600.557 945.048L614.748 937.658L600.557 945.048ZM718.711 988.315L731.433 998.019V998.019L718.711 988.315ZM698.326 792.778L711.496 783.693L698.326 792.778ZM1117.27 768.232L1113.64 752.651L1117.27 768.232ZM1342.77 597.241L1346.91 612.697L1342.77 597.241ZM1527.07 692.93L1542.67 689.389L1542.67 689.389L1527.07 692.93ZM1436.79 853.104L1431.7 868.271V868.271L1436.79 853.104ZM1217.12 853.104L1227.83 864.996L1227.83 864.996L1217.12 853.104ZM1166.37 988.315L1151.95 995.25V995.25L1166.37 988.315ZM773.212 1103.14L775.575 1087.32L773.212 1103.14ZM152.727 904.503C228.884 903.67 268.534 902.202 300.697 897C332.534 891.85 357.362 883.001 404.317 866.172L415.114 896.295C368.7 912.931 341.064 922.886 305.807 928.589C270.876 934.239 228.804 935.673 153.077 936.501L152.727 904.503ZM404.317 866.172L405.03 865.916L415.827 896.04L415.114 896.295L404.317 866.172ZM405.03 865.916C452.439 848.925 492.514 840.665 527.708 851.192C563.742 861.971 590.467 891.029 614.748 937.658L586.366 952.438C563.635 908.787 542.308 888.96 518.537 881.85C493.925 874.488 462.442 879.333 415.827 896.04L405.03 865.916ZM614.748 937.658C637.12 980.619 658.376 992.176 672.18 993.859C686.363 995.589 699.043 987.72 705.989 978.612L731.433 998.019C719.658 1013.46 696.768 1029.09 668.306 1025.62C639.467 1022.11 611.007 999.757 586.366 952.438L614.748 937.658ZM705.989 978.612C720.496 959.592 746.94 891.423 685.156 801.864L711.496 783.693C781.116 884.61 754.37 967.946 731.433 998.019L705.989 978.612ZM685.156 801.864C672.568 783.618 665.793 765.493 665.052 748.112C664.302 730.518 669.8 714.769 679.874 701.895C699.6 676.688 735.277 664.033 773.212 664.033V696.033C741.044 696.033 716.604 706.884 705.075 721.616C699.522 728.712 696.609 737.04 697.023 746.749C697.446 756.671 701.409 769.072 711.496 783.693L685.156 801.864ZM773.212 664.033C846.464 664.033 901.88 696.372 952.445 721.858C1003.58 747.63 1050.83 767.306 1113.64 752.651L1120.91 783.814C1046.42 801.194 990.293 776.769 938.042 750.433C885.222 723.811 837.252 696.033 773.212 696.033V664.033ZM1113.64 752.651C1177.42 737.769 1213.54 702.695 1243.03 667.474C1257.32 650.397 1271.67 631.155 1285.76 616.33C1300.33 600.999 1317.04 587.569 1338.63 581.786L1346.91 612.697C1333.55 616.275 1321.76 624.895 1308.95 638.374C1295.66 652.359 1283.74 668.689 1267.56 688.015C1236.1 725.601 1194.42 766.661 1120.91 783.814L1113.64 752.651ZM1338.63 581.786C1378.8 571.026 1425.81 581.862 1463.64 601.933C1501.04 621.782 1534.51 653.42 1542.67 689.389L1511.47 696.471C1506.32 673.778 1482.58 648.211 1448.64 630.201C1415.11 612.412 1376.63 604.735 1346.91 612.697L1338.63 581.786ZM1542.67 689.389C1549.54 719.63 1555.8 772.194 1544.65 813.395C1539.01 834.201 1528.27 854.483 1508.42 866.105C1488.26 877.905 1462.49 878.61 1431.7 868.271L1441.88 837.936C1467.47 846.527 1482.83 844.008 1492.25 838.49C1501.98 832.795 1509.25 821.666 1513.76 805.029C1522.88 771.344 1517.92 724.891 1511.47 696.471L1542.67 689.389ZM1431.7 868.271C1374.59 849.097 1336.55 836.902 1305.65 835.225C1276.76 833.657 1254.1 841.351 1227.83 864.996L1206.42 841.211C1238.39 812.436 1269.2 801.2 1307.39 803.272C1343.57 805.236 1386.24 819.251 1441.88 837.936L1431.7 868.271ZM1227.83 864.996C1198.45 891.433 1181.91 909.453 1174.8 926.187C1168.49 941.031 1168.93 956.733 1180.79 981.381L1151.95 995.25C1137.59 965.397 1134.29 939.704 1145.35 913.672C1155.61 889.531 1177.55 867.195 1206.42 841.211L1227.83 864.996ZM1180.79 981.381C1188.49 997.391 1193.46 1018.87 1188.41 1041.25C1183.23 1064.19 1167.99 1086 1139.1 1102.65C1110.64 1119.05 1068.95 1130.52 1009.77 1134.28C950.442 1138.06 872.54 1134.15 770.849 1118.97L775.575 1087.32C875.87 1102.29 951.381 1105.93 1007.74 1102.35C1064.24 1098.75 1100.51 1087.96 1123.12 1074.93C1145.29 1062.15 1154.23 1047.34 1157.19 1034.21C1160.28 1020.53 1157.35 1006.49 1151.95 995.25L1180.79 981.381ZM770.849 1118.97C569.194 1088.85 354.033 1057.13 219.029 1025.85C185.228 1018.02 156.057 1010.13 133.191 1002.18C111.145 994.516 92.3677 985.973 81.8223 975.724C76.3348 970.391 70.7773 962.329 71.51 951.92C72.2338 941.638 78.7493 934.232 85.1553 929.312C97.6495 919.715 119.58 911.951 149.215 904.932L156.59 936.071C126.939 943.093 111.166 949.683 104.648 954.689C101.548 957.071 103.23 957.029 103.431 954.167C103.642 951.177 101.873 950.588 104.124 952.776C109.057 957.57 121.558 964.258 143.697 971.953C165.017 979.363 192.94 986.956 226.252 994.674C359.694 1025.59 573.259 1057.1 775.575 1087.32L770.849 1118.97Z" fill="#1D2939" mask="url(#path-18-outside-9_82_1150)"/>
<mask id="path-20-outside-10_82_1150" maskUnits="userSpaceOnUse" x="-233.627" y="-219.216" width="741.716" height="1005.04" fill="black">
<rect fill="white" x="-233.627" y="-219.216" width="741.716" height="1005.04"/>
<path d="M-22.0457 461.214C-139.157 509.338 -142.09 535.437 -213.956 681.149C-178.915 437.228 -87.0959 -65.5223 -0.141523 -125.157C108.551 -199.701 599.856 -118.162 443.249 33.664C286.643 185.49 249.521 49.2029 156.023 68.9764C62.5244 88.75 76.5651 140.671 123.947 250.045C171.33 359.42 95.0651 413.09 -22.0457 461.214Z"/>
</mask>
<path d="M-22.0457 461.214C-139.157 509.338 -142.09 535.437 -213.956 681.149C-178.915 437.228 -87.0959 -65.5223 -0.141523 -125.157C108.551 -199.701 599.856 -118.162 443.249 33.664C286.643 185.49 249.521 49.2029 156.023 68.9764C62.5244 88.75 76.5651 140.671 123.947 250.045C171.33 359.42 95.0651 413.09 -22.0457 461.214Z" fill="#1D2939"/>
<path d="M-213.956 681.149L-199.606 688.226L-229.793 678.874L-213.956 681.149ZM-22.0457 461.214L-15.9643 476.013L-15.9643 476.013L-22.0457 461.214ZM123.947 250.045L109.266 256.406L123.947 250.045ZM443.249 33.664L454.386 45.1517L443.249 33.664ZM-0.141523 -125.157L-9.19093 -138.352L-9.19092 -138.352L-0.141523 -125.157ZM-228.305 674.071C-193.053 602.597 -173.253 557.158 -147.511 524.653C-120.586 490.654 -87.499 470.812 -28.1271 446.415L-15.9643 476.013C-73.7033 499.74 -100.638 517.009 -122.424 544.519C-145.393 573.522 -162.992 613.989 -199.606 688.226L-228.305 674.071ZM-28.1271 446.415C30.4167 422.357 75.3662 398.119 100.38 368.313C112.54 353.822 119.765 338.252 121.689 320.674C123.63 302.943 120.311 281.903 109.266 256.406L138.629 243.685C151.274 272.875 156.191 299.559 153.499 324.156C150.79 348.907 140.513 370.269 124.892 388.884C94.3409 425.288 42.6027 451.946 -15.9643 476.013L-28.1271 446.415ZM109.266 256.406C97.4086 229.035 87.3566 204.631 80.5699 183.228C73.8374 161.996 69.8382 142.302 71.2025 124.676C72.6284 106.254 79.9172 90.3755 94.5859 78.0004C108.585 66.1899 128.206 58.5054 152.712 53.3226L159.333 84.6302C137.09 89.3342 123.404 95.555 115.22 102.459C107.706 108.798 103.935 116.443 103.107 127.145C102.217 138.643 104.769 153.673 111.073 173.556C117.324 193.267 126.795 216.368 138.629 243.685L109.266 256.406ZM152.712 53.3226C180.406 47.4657 203.682 53.3848 224.262 61.6102C234.288 65.6177 244.274 70.4342 253.365 74.6012C262.73 78.8937 271.61 82.7251 280.726 85.5632C298.435 91.0764 317.212 92.9092 340.444 85.256C364.247 77.4146 393.9 59.2227 432.112 22.1763L454.386 45.1517C414.296 84.0185 380.581 105.726 350.456 115.649C319.76 125.761 294.049 123.226 271.214 116.117C260.059 112.644 249.653 108.101 240.031 103.691C230.136 99.1555 221.434 94.9412 212.385 91.3248C194.814 84.302 178.388 80.6003 159.333 84.6302L152.712 53.3226ZM432.112 22.1763C450.118 4.72011 456.756 -9.7634 457.671 -21.0961C458.554 -32.0404 454.342 -43.1803 443.576 -54.8233C421.151 -79.0736 374.928 -100.258 317.056 -115.14C260.002 -129.811 194.676 -137.596 137.143 -137.141C108.392 -136.913 81.9247 -134.629 59.6154 -130.261C37.0559 -125.843 19.9194 -119.514 8.90788 -111.962L-9.19092 -138.352C6.97078 -149.436 28.9642 -156.866 53.4656 -161.664C78.2173 -166.511 106.743 -168.901 136.889 -169.14C197.151 -169.617 265.243 -161.505 325.026 -146.131C383.992 -130.968 438.024 -107.959 467.07 -76.5493C482.039 -60.3621 491.366 -40.8052 489.567 -18.521C487.799 3.3747 475.532 24.6513 454.386 45.1517L432.112 22.1763ZM8.90788 -111.962C1.24279 -106.705 -8.22505 -95.0868 -18.8195 -75.7164C-29.1727 -56.7871 -39.7089 -32.1483 -50.2541 -2.88978C-71.331 55.5898 -91.8912 130.958 -110.935 212.526C-149.003 375.572 -180.64 561.758 -198.118 683.424L-229.793 678.874C-212.23 556.619 -180.438 369.469 -142.097 205.251C-122.937 123.187 -102.049 46.4412 -80.3585 -13.7398C-69.5202 -43.8116 -58.3433 -70.1396 -46.8946 -91.0718C-35.6872 -111.563 -23.2644 -128.7 -9.19093 -138.352L8.90788 -111.962Z" fill="#1D2939" mask="url(#path-20-outside-10_82_1150)"/>
<mask id="path-22-outside-11_82_1150" maskUnits="userSpaceOnUse" x="1239.59" y="15.7998" width="346.571" height="336.945" fill="black">
<rect fill="white" x="1239.59" y="15.7998" width="346.571" height="336.945"/>
<path d="M1289.26 174.4C1261.28 218.086 1326.74 282.517 1420.11 293.244C1517.31 293.791 1529.4 224.907 1523.11 156.577C1516.82 88.2463 1454.18 84.5781 1420.04 130.664C1385.9 176.75 1317.25 130.714 1289.26 174.4Z"/>
</mask>
<path d="M1289.26 174.4C1261.28 218.086 1326.74 282.517 1420.11 293.244C1517.31 293.791 1529.4 224.907 1523.11 156.577C1516.82 88.2463 1454.18 84.5781 1420.04 130.664C1385.9 176.75 1317.25 130.714 1289.26 174.4Z" fill="#00FFAB"/>
<path d="M1420.11 293.244L1418.29 309.139L1419.15 309.239L1420.02 309.243L1420.11 293.244ZM1289.26 174.4L1275.79 165.769L1289.26 174.4ZM1420.04 130.664L1432.9 140.188L1420.04 130.664ZM1523.11 156.577L1507.18 158.044L1507.18 158.044L1523.11 156.577ZM1421.94 277.348C1378.18 272.321 1341.8 254.752 1320.09 234.486C1297.58 213.468 1295.1 194.945 1302.73 183.03L1275.79 165.769C1255.44 197.541 1271.69 233.076 1298.26 257.877C1325.63 283.429 1368.67 303.439 1418.29 309.139L1421.94 277.348ZM1302.73 183.03C1307.04 176.315 1312.61 173.004 1320.34 171.198C1328.97 169.182 1339.11 169.28 1352.16 169.431C1375.81 169.704 1410.32 170.667 1432.9 140.188L1407.19 121.14C1395.63 136.747 1378.74 137.735 1352.53 137.433C1340.65 137.296 1326.24 136.957 1313.06 140.036C1298.98 143.325 1285.48 150.642 1275.79 165.769L1302.73 183.03ZM1432.9 140.188C1447.32 120.724 1465.92 114.094 1479.21 116.465C1490.96 118.563 1504.5 128.962 1507.18 158.044L1539.04 155.11C1535.43 115.861 1514.5 90.2608 1484.83 84.9633C1456.69 79.9397 1426.91 94.518 1407.19 121.14L1432.9 140.188ZM1507.18 158.044C1510.26 191.555 1508.35 221.681 1496.46 242.923C1485.59 262.334 1464.5 277.493 1420.2 277.244L1420.02 309.243C1472.93 309.541 1506.48 290.532 1524.38 258.556C1541.26 228.41 1542.25 189.929 1539.04 155.11L1507.18 158.044Z" fill="#1D2939" mask="url(#path-22-outside-11_82_1150)"/>
</g>
</g>
</svg>
