<svg width="99" height="99" viewBox="0 0 99 99" fill="none" xmlns="http://www.w3.org/2000/svg">
<path d="M8.06886 82.3527H50.1087H78.9139L72.2965 80.7956C72.037 80.7956 71.1288 80.5621 69.5717 79.6278C68.0147 78.6936 67.6254 76.903 67.6254 76.1245L64.5114 55.4938C65.6791 54.8451 69.0268 52.9247 73.0751 50.4335C78.1354 47.3194 83.9743 42.259 87.4776 38.3665C90.9809 34.4739 89.8132 34.4739 89.8132 30.9705C89.8132 28.1679 79.4329 25.3912 74.2428 24.3531C73.3346 21.1093 70.1167 14.6995 64.5114 15.0109C57.5047 15.4002 55.1691 23.9639 54.7799 25.1317C54.3906 26.2994 46.2162 22.0176 26.7533 39.5342C11.1829 53.5475 7.42009 74.4377 8.06886 82.3527Z" fill="url(#paint0_linear_106_23)"/>
<path d="M26.7531 52.3798C18.968 58.2965 12.9994 73.0105 10.4043 80.0171L22.082 78.0708L32.592 73.3997C32.592 73.3997 36.7182 71.687 45.4376 64.836C56.3368 56.2724 52.8335 48.4872 51.6657 46.5409C50.7315 44.9839 47.1243 44.5946 45.4376 44.5946C42.4532 44.7244 34.5383 46.463 26.7531 52.3798Z" fill="url(#paint1_linear_106_23)" stroke="black" stroke-width="5"/>
<path d="M48.9411 80.7956H9.23674C8.58798 72.8807 11.183 53.5475 26.7534 39.5342C46.2163 22.0176 54.3907 26.2994 54.78 25.1317C55.1692 23.9639 57.5048 15.4002 64.5114 15.0109C70.1168 14.6995 73.3346 21.1093 74.2429 24.3531C79.433 25.3912 89.8132 28.1679 89.8132 30.9705C89.8132 34.4739 90.981 34.4739 87.4777 38.3665C83.9744 42.259 78.1355 47.3194 73.0751 50.4335C69.0268 52.9247 65.6792 54.8451 64.5114 55.4938L67.6255 76.1245C67.6255 76.903 68.0148 78.6936 69.5718 79.6278C71.1288 80.5621 72.0371 80.7956 72.2966 80.7956H77.7462" stroke="black" stroke-width="5" stroke-linecap="round"/>
<circle cx="64.9007" cy="24.3532" r="5.06036" fill="black"/>
<circle cx="67.2361" cy="22.7962" r="1.16778" fill="white"/>
<defs>
<linearGradient id="paint0_linear_106_23" x1="8" y1="82.731" x2="89.7443" y2="33.2951" gradientUnits="userSpaceOnUse">
<stop stop-color="#67C2F9"/>
<stop offset="1" stop-color="#5ECF77"/>
</linearGradient>
<linearGradient id="paint1_linear_106_23" x1="10.3354" y1="80.3954" x2="53.1539" y2="44.5837" gradientUnits="userSpaceOnUse">
<stop offset="0.120565" stop-color="#0057FF"/>
<stop offset="1" stop-color="#67C2F9"/>
</linearGradient>
</defs>
</svg>
