<svg width="200" height="200" viewBox="0 0 200 200" fill="none" xmlns="http://www.w3.org/2000/svg">
<path d="M100 154.75C93.0833 154.75 86.5833 153.437 80.5 150.812C74.4167 148.187 69.125 144.625 64.625 140.125C60.125 135.625 56.5625 130.333 53.9375 124.25C51.3125 118.167 50 111.667 50 104.75C50 95 52.5833 86.0625 57.75 77.9375C62.9167 69.8125 69.9167 63.6667 78.75 59.5C78.8333 60.8333 78.9583 62.1042 79.125 63.3125C79.2917 64.5208 79.5417 65.8333 79.875 67.25C72.9583 71 67.5 76.2292 63.5 82.9375C59.5 89.6458 57.5 96.9167 57.5 104.75C57.5 116.583 61.625 126.625 69.875 134.875C78.125 143.125 88.1667 147.25 100 147.25C111.833 147.25 121.875 143.125 130.125 134.875C138.375 126.625 142.5 116.583 142.5 104.75C142.5 96.8333 140.5 89.5417 136.5 82.875C132.5 76.2083 127 71 120 67.25C120.333 65.75 120.604 64.3958 120.813 63.1875C121.021 61.9792 121.167 60.75 121.25 59.5C130.083 63.6667 137.083 69.8125 142.25 77.9375C147.417 86.0625 150 95 150 104.75C150 111.667 148.687 118.167 146.062 124.25C143.437 130.333 139.875 135.625 135.375 140.125C130.875 144.625 125.583 148.187 119.5 150.812C113.417 153.437 106.917 154.75 100 154.75ZM100 134.75C91.6667 134.75 84.5833 131.833 78.75 126C72.9167 120.167 70 113.083 70 104.75C70 99.6667 71.1667 94.9375 73.5 90.5625C75.8333 86.1875 79.125 82.5833 83.375 79.75C83.7083 80.6667 84.0625 81.7292 84.4375 82.9375C84.8125 84.1458 85.2917 85.5833 85.875 87.25C83.2083 89.4167 81.1458 92 79.6875 95C78.2292 98 77.5 101.25 77.5 104.75C77.5 111 79.6875 116.312 84.0625 120.688C88.4375 125.062 93.75 127.25 100 127.25C106.25 127.25 111.562 125.062 115.938 120.688C120.312 116.312 122.5 111 122.5 104.75C122.5 101.25 121.771 98 120.312 95C118.854 92 116.792 89.4167 114.125 87.25C114.625 85.6667 115.062 84.2708 115.437 83.0625C115.812 81.8542 116.167 80.75 116.5 79.75C120.75 82.5833 124.063 86.1875 126.438 90.5625C128.813 94.9375 130 99.6667 130 104.75C130 113.083 127.083 120.167 121.25 126C115.417 131.833 108.333 134.75 100 134.75ZM96 86C92.9167 76.75 90.9375 70.3958 90.0625 66.9375C89.1875 63.4792 88.75 60.25 88.75 57.25C88.75 54.0833 89.8333 51.4167 92 49.25C94.1667 47.0833 96.8333 46 100 46C103.167 46 105.833 47.0833 108 49.25C110.167 51.4167 111.25 54.0833 111.25 57.25C111.25 60.25 110.813 63.4792 109.938 66.9375C109.063 70.3958 107.083 76.75 104 86H96ZM100 113.5C97.5833 113.5 95.5208 112.646 93.8125 110.938C92.1042 109.229 91.25 107.167 91.25 104.75C91.25 102.333 92.1042 100.271 93.8125 98.5625C95.5208 96.8542 97.5833 96 100 96C102.417 96 104.479 96.8542 106.188 98.5625C107.896 100.271 108.75 102.333 108.75 104.75C108.75 107.167 107.896 109.229 106.188 110.938C104.479 112.646 102.417 113.5 100 113.5Z" fill="#FF4F9D"/>
</svg>
