<svg width="112" height="112" viewBox="0 0 112 112" fill="none" xmlns="http://www.w3.org/2000/svg">
<rect x="5.99998" y="6" width="100" height="100" rx="50" fill="#1D2939" stroke="#1D2939" stroke-width="4"/>
<mask id="mask0_68_5640" style="mask-type:alpha" maskUnits="userSpaceOnUse" x="8" y="8" width="96" height="96">
<rect x="8.00005" y="8" width="96" height="96" rx="48" fill="#D9D9D9"/>
</mask>
<g mask="url(#mask0_68_5640)">
<path fill-rule="evenodd" clip-rule="evenodd" d="M60.1098 19.3314C44.3438 30.4795 38.8069 36.0796 33.7731 51.477C32.3784 56.5378 33.0455 61.7769 37.992 67.695C36.1027 67.0101 33.3203 65.4972 30.5352 63.0597C29.865 66.8948 29.545 70.9238 29.6589 75.1234C30.3762 84.1668 35.8285 88.8054 38.9943 90.955C37.3704 90.6382 34.2254 89.6488 31.2931 87.8092C32.7389 94.1062 35.1899 100.692 38.8749 107.503L60.5156 130.824C69.2748 119.194 73.9289 105.028 75.7318 90.6709C71.8264 93.3955 66.8905 94.4459 64.7182 94.6308C68.2787 92.7912 74.628 88.6139 76.588 79.248C76.6351 77.4676 76.6431 75.6938 76.6145 73.9312C73.3489 78.7491 65.8416 80.4242 62.1671 80.6505C71.0512 76.3923 75.3489 65.0526 74.944 55.2364C74.5449 52.7935 74.0827 50.4137 73.5655 48.1127C68.4252 50.8861 63.2565 52.6027 60.2805 53.3024C68.4532 47.3241 71.6463 40.9601 68.7875 33.0477L67.5823 29.7909C65.7637 25.838 62.1485 21.6914 60.1098 19.3314ZM52.7629 39.7484C52.4259 40.6631 52.0341 41.641 51.6088 42.6926C51.9955 41.5693 52.3847 40.5854 52.7629 39.7484ZM51.6088 42.6926L51.4224 43.1529C47.0148 54.0369 39.4677 72.673 50.8849 110.286L57.4339 112.499C47.0694 80.4034 47.7013 54.0418 51.6088 42.6926Z" fill="#314155"/>
<path d="M51.6088 42.6926C52.0341 41.641 52.4259 40.6631 52.7629 39.7484C52.3847 40.5854 51.9955 41.5693 51.6088 42.6926ZM51.6088 42.6926L51.4224 43.1529C47.0148 54.0369 39.4677 72.673 50.8849 110.286L57.4339 112.499C47.0694 80.4034 47.7013 54.0418 51.6088 42.6926ZM33.7731 51.477C38.8069 36.0796 44.3438 30.4795 60.1098 19.3314C62.1485 21.6914 65.7637 25.838 67.5823 29.7909L68.7875 33.0477C71.6463 40.9601 68.4532 47.3241 60.2805 53.3024C63.2565 52.6027 68.4252 50.8861 73.5655 48.1127C74.0827 50.4137 74.5449 52.7935 74.944 55.2364C75.3489 65.0526 71.0512 76.3923 62.1671 80.6505C65.8416 80.4242 73.3489 78.7491 76.6145 73.9312C76.6431 75.6938 76.6351 77.4676 76.588 79.248C74.628 88.6139 68.2787 92.7912 64.7182 94.6308C66.8905 94.4459 71.8264 93.3955 75.7318 90.6709C73.9289 105.028 69.2748 119.194 60.5156 130.824L38.8749 107.503C35.1899 100.692 32.7389 94.1062 31.2931 87.8092C34.2254 89.6488 37.3704 90.6382 38.9943 90.955C35.8285 88.8054 30.3762 84.1668 29.6589 75.1234C29.545 70.9238 29.865 66.8948 30.5352 63.0597C33.3203 65.4972 36.1027 67.0101 37.992 67.695C33.0455 61.7769 32.3784 56.5378 33.7731 51.477Z" stroke="#66FBD1" stroke-width="2.88605" stroke-linecap="round" stroke-linejoin="round"/>
</g>
</svg>
